# xmcd
#
# Track frame offsets:
#	150
#	13005
#	26322
#	39925
#	52787
#	64645
#	77297
#	90865
#	102817
#	114840
#	126092
#	138082
#	150980
#	162642
#	173805
#	185572
#	195547
#	206545
#	218262
#	228580
#	241302
#	251685
#
# Disc length: 3503 seconds
#
# Revision: 1
# Processed by: cddbd v1.5PL3 Copyright (c) Steve Scherf et al.
# Submitted via: EasyCDDAExtractor 6.5.0.1
#
DISCID=010dad16
DTITLE=Various Artist - Delta Blues Legend 
DYEAR=1997
DGENRE=Blues
TTITLE0=Robert Johnson  - Kindhearted Woman Blues
TTITLE1=Robert Johnson  - I Believe I'll Dust My Broom
TTITLE2=Robert Johnson  - Sweet Home Chicago
TTITLE3=Robert Johnson  - Rambling On My Mind
TTITLE4=Robert Johnson  - When You Got A Good Friend
TTITLE5=Robert Johnson  - Come On In My Kitchen
TTITLE6=Robert Johnson  - Terraplane Blues
TTITLE7=Robert Johnson  - Phonograph Blues
TTITLE8=Robert Johnson  - Cross Road Blues
TTITLE9=Robert Johnson  - Walking Blues
TTITLE10=Robert Johnson  - Last Fair Deal Gone Down
TTITLE11=Robert Johnson  - Preaching Blues (Up Jumped The Devil)
TTITLE12=Robert Johnson  - If I Had Possession Over Judgement Day
TTITLE13=Robert Johnson  - Stones In My Passway
TTITLE14=Robert Johnson  - I'm A Steady Rollin' Man
TTITLE15=Robert Johnson  - Little Queen Of Spades
TTITLE16=Robert Johnson - Drunken Hearted Man
TTITLE17=Robert Johnson  - Me And The Devil Blues
TTITLE18=Robert Johnson  - Stop Breakin' Down Blues
TTITLE19=Robert Johnson  - Traveling Riverside Blues
TTITLE20=Robert Johnson  - Honeymoon Blues
TTITLE21=Robert Johnson  - Love In Vain
EXTD=
EXTT0=
EXTT1=
EXTT2=
EXTT3=
EXTT4=
EXTT5=
EXTT6=
EXTT7=
EXTT8=
EXTT9=
EXTT10=
EXTT11=
EXTT12=
EXTT13=
EXTT14=
EXTT15=
EXTT16=
EXTT17=
EXTT18=
EXTT19=
EXTT20=
EXTT21=
PLAYORDER=
